<svg width="860" height="100" viewBox="0 0 860 100" fill="none" xmlns="http://www.w3.org/2000/svg">
<path d="M86.4383 88.7063L71.7071 68.5494L60.4834 53.1769L47.9347 62.4318L62.0422 81.7259C58.1451 83.2945 53.8583 84.2357 49.4156 84.2357C30.7094 84.2357 15.5106 68.9416 15.5106 50.1965C15.5106 31.373 30.7094 16.0789 49.4156 16.0789C68.1218 16.0789 83.2426 31.373 83.2426 50.1965C83.2426 57.02 81.2161 63.4514 77.7866 68.7847L87.4515 81.9612C94.6222 73.3337 98.9091 62.2749 98.9091 50.1965C98.9091 22.7455 76.6955 0.392578 49.4935 0.392578C22.2136 0.392578 0 22.7455 0 50.1965C0 77.6475 22.2136 99.922 49.4935 99.922C57.4436 99.922 64.9261 98.0396 71.6292 94.6671L75.4484 99.922H94.7002L86.4383 88.7063Z" fill="white"/>
<path d="M172.33 38.8213V99.9193H156.742V94.2722C151.364 97.8017 144.895 99.9193 137.958 99.9193C119.018 99.9193 103.585 84.3899 103.585 65.3311V32.8605L119.174 39.684V65.3311C119.174 75.7624 127.591 84.233 137.958 84.233C148.324 84.233 156.742 75.7624 156.742 65.3311V32.0762L172.33 38.8213Z" fill="white"/>
<path d="M192.67 7.05924V21.3337L177.082 14.5102V0.392578L192.67 7.05924Z" fill="white"/>
<path d="M177.082 19.7637L192.67 26.5872V99.9205H177.082V19.7637Z" fill="white"/>
<path d="M213.012 7.21611V99.922H197.423V0.392578L213.012 7.21611Z" fill="white"/>
<path d="M233.361 7.21611V99.922H217.772V0.392578L233.361 7.21611Z" fill="white"/>
<path d="M353.704 99.881V7.17509L338.115 0.351562V99.881H353.704Z" fill="white"/>
<path d="M483.164 7.21415V88.0769L467.575 59.5279V0.390625L483.164 7.21415Z" fill="white"/>
<path d="M483.163 99.92V97.9592L467.574 69.4102L435.618 10.9004L411.689 0.390625V99.92H427.278V28.0769L466.483 99.92H483.163Z" fill="white"/>
<path d="M333.361 99.9203H316.837L286.362 21.3321L270.072 62.4301L293.065 51.5282L298.755 66.1164L261.498 83.685L255.029 99.9203H238.193L277.71 0.3125L298.287 9.48897L333.361 99.9203Z" fill="white"/>
<path d="M593.924 84.2353L600.081 99.9216H593.924C571.788 99.9216 561.889 85.8823 561.889 71.9216V0L577.478 6.90196V31.5294H593.222L599.302 47.2157H577.4V71.8431C577.478 79.8431 583.324 84.2353 593.924 84.2353Z" fill="white"/>
<path d="M598.287 31.6055L624.008 99.9976H640.61L618.24 40.2329L598.287 31.6055Z" fill="white"/>
<path d="M662.203 99.9976L685.508 37.8015L671.244 31.6055L653.863 77.8015L639.833 40.3898L619.958 31.6839L645.601 99.9976H662.203Z" fill="white"/>
<path d="M716.445 99.9214C697.739 99.9214 682.462 84.6273 682.462 65.7254C682.462 46.8234 697.661 31.5293 716.445 31.5293C735.151 31.5293 750.428 46.8234 750.428 65.7254C750.428 84.6273 735.151 99.9214 716.445 99.9214ZM716.445 47.2156C706.312 47.2156 698.05 55.5293 698.05 65.7254C698.05 75.9215 706.312 84.2352 716.445 84.2352C726.577 84.2352 734.839 75.9215 734.839 65.7254C734.839 55.5293 726.577 47.2156 716.445 47.2156Z" fill="white"/>
<path d="M792.366 31.451V47.0589L786.209 47.1373C779.817 47.1373 770.776 50.7423 770.776 60.4706V99.8432L755.265 99.8432L755.188 99.8432V25.4902L770.776 32.2353V36C774.702 31.6847 779.099 31.451 792.366 31.451Z" fill="white"/>
<path fill-rule="evenodd" clip-rule="evenodd" d="M840.672 99.8447H860.002L840.063 72.4707L830.399 85.804L840.672 99.8447Z" fill="white"/>
<path d="M859.002 38.1178L844.349 31.6864L812.704 75.6864V7.29423L797.116 0.470703V99.9217H814.411L859.002 38.1178Z" fill="white"/>
<path d="M557.134 65.097C557.134 45.8813 541.624 30.2734 522.528 30.2734C503.432 30.2734 487.921 45.8813 487.921 65.097C487.921 84.3126 503.432 99.9205 522.528 99.9205H556.277L550.197 84.2342H522.45C514.733 84.2342 508.108 79.6068 505.146 72.9401H556.199C556.822 70.4303 557.134 67.7636 557.134 65.097ZM505.224 57.2538C508.186 50.5872 514.811 45.9597 522.528 45.9597C530.244 45.9597 536.869 50.5872 539.831 57.2538H505.224Z" fill="white"/>
</svg>
